<svg xmlns="http://www.w3.org/2000/svg" viewBox="0 0 64 64" fill="none">
  <defs>
    <linearGradient id="bg" x1="8" y1="8" x2="56" y2="56" gradientUnits="userSpaceOnUse">
      <stop offset="0" stop-color="#7DF9FF" />
      <stop offset="1" stop-color="#B026FF" />
    </linearGradient>
    <linearGradient id="fg" x1="18" y1="14" x2="48" y2="50" gradientUnits="userSpaceOnUse">
      <stop offset="0" stop-color="#FFFFFF" />
      <stop offset="1" stop-color="#EAEAEA" />
    </linearGradient>
  </defs>
  <rect x="6" y="6" width="52" height="52" rx="14" fill="#050505" />
  <rect x="6" y="6" width="52" height="52" rx="14" stroke="url(#bg)" stroke-width="2.5" />
  <path
    d="M43.6 20.7c-1.8-3.1-5.5-5.1-10.2-5.1-6.4 0-10.8 3.6-10.8 8.7 0 4.3 2.7 6.5 8.8 8.1 4.8 1.2 6 2 6 3.8 0 1.9-1.8 3.1-4.7 3.1-3.2 0-5.2-1.2-6.7-3.7l-5.6 3.2c2.2 4.1 6.2 6.3 12.2 6.3 7.2 0 11.6-3.4 11.6-9 0-4.6-2.7-6.9-9.3-8.6-4.2-1.1-5.5-1.8-5.5-3.5s1.4-2.8 3.9-2.8c2.4 0 4 1 5.1 2.8l5.2-3.3Z"
    fill="url(#fg)"
  />
</svg>
